<?xml version="1.0" encoding="UTF-8" standalone="no"?>
<!-- Created with Inkscape (http://www.inkscape.org/) -->

<svg
   width="103.56329mm"
   height="91.990471mm"
   viewBox="0 0 103.56329 91.990471"
   version="1.1"
   id="svg1"
   xml:space="preserve"
   xmlns="http://www.w3.org/2000/svg"
   xmlns:svg="http://www.w3.org/2000/svg"><defs
     id="defs1" /><g
     id="layer1"
     transform="translate(-49.434957,-96.386037)"><path
       id="path5"
       style="fill:#ffffff;stroke-width:1.73727"
       d="m 63.427748,187.78676 c 1.870148,-0.35955 5.34454,-1.40712 7.720864,-2.32794 4.550451,-1.76327 14.456088,-6.83571 17.700868,-9.06419 1.05422,-0.72405 2.03647,-1.31643 2.18276,-1.31643 0.14627,0 1.29347,-0.72572 2.54928,-1.61269 1.25582,-0.887 2.38153,-1.61269 2.50158,-1.61269 0.36208,0 9.42417,-6.46214 12.8595,-9.17007 12.19368,-9.61176 24.41407,-21.91158 32.54838,-32.75997 1.23513,-1.64724 2.78889,-3.72071 3.45278,-4.60769 4.07249,-5.4409 6.98405,-10.90324 7.82744,-14.68498 1.65463,-7.41913 -5.80343,-8.87478 -20.10451,-3.92396 -5.91396,2.04733 -14.87235,6.69229 -14.20339,7.36452 0.0953,0.0958 1.29375,-0.21469 2.66301,-0.6901 1.36926,-0.47541 4.28113,-1.12612 6.47082,-1.44603 8.80661,-1.28663 13.95977,1.8806 12.97726,7.97606 -1.56462,9.70693 -13.08231,23.67529 -30.75784,37.30236 -15.22557,11.73825 -32.031504,19.65234 -42.178187,19.86212 -3.410183,0.0705 -3.837608,-0.0258 -5.388318,-1.21436 -3.249649,-2.49066 -4.049474,-6.22801 -2.447968,-11.43869 0.927431,-3.01751 4.043322,-8.41405 4.953648,-8.57942 0.346369,-0.0629 1.586497,1.42546 2.778376,3.33459 4.014138,6.42981 8.162258,7.72637 15.042479,4.70175 4.30962,-1.89455 10.35179,-5.88446 14.13232,-9.3322 3.02202,-2.75598 3.10634,-3.40641 0.44351,-3.42151 -2.05427,-0.0122 -6.04844,-1.75281 -7.68083,-3.34826 -3.2503,-3.17674 -4.51022,-8.49508 -3.19266,-13.47689 1.2672,-4.79138 3.71171,-8.63038 8.66413,-13.60658 6.54073,-6.57213 17.18965,-13.56979 24.4924,-16.09453 1.35508,-0.46848 3.04788,-1.15931 3.76178,-1.53518 l 1.298,-0.68341 -3.42018,-1.62565 c -7.92173,-3.765295 -14.65369,-4.984275 -22.57485,-4.087695 -5.39795,0.61098 -9.15057,1.70596 -13.68702,3.993715 -10.98255,5.53856 -17.808408,13.6482 -21.52711,25.57586 -0.938055,3.00879 -1.079715,4.40937 -1.095278,10.82809 -0.01386,5.86583 0.162561,8.04934 0.865214,10.68544 l 0.883065,3.3131 -1.237182,1.79396 c -0.680452,0.98666 -1.595457,2.19126 -2.033333,2.67688 -0.755737,0.83814 -3.444566,4.98232 -5.505646,8.48564 -1.815695,3.08617 -3.833864,7.46222 -4.744727,10.28808 -1.197928,3.71643 -1.32581,9.42774 -0.248088,11.08052 1.854706,2.84441 6.534548,3.69104 13.257653,2.39843 z m 49.476602,-7.60913 c 10.17737,-2.11173 17.9094,-6.99665 24.84605,-15.69714 4.8788,-6.11935 8.10588,-14.84802 8.09172,-21.88655 l -0.007,-3.22538 -1.30395,2.53493 c -4.79291,9.31757 -8.83297,14.87106 -16.08917,22.11624 -3.98202,3.97598 -5.23815,5.07831 -8.72422,7.65615 -4.89329,3.61844 -7.249,5.18526 -9.5828,6.37363 -1.29726,0.66057 -3.02488,1.60923 -3.83918,2.10813 l -1.48056,0.90711 1.89833,0.002 c 1.04407,9.6e-4 3.82971,-0.39903 6.19028,-0.88884 z" /></g></svg>
